<?xml version="1.0" standalone="no"?>
<!DOCTYPE svg PUBLIC "-//W3C//DTD SVG 20010904//EN"
 "http://www.w3.org/TR/2001/REC-SVG-20010904/DTD/svg10.dtd">
<svg version="1.0" xmlns="http://www.w3.org/2000/svg"
 width="56.000000pt" height="68.000000pt" viewBox="0 0 56.000000 68.000000"
 preserveAspectRatio="xMidYMid meet">

<g transform="translate(0.000000,68.000000) scale(0.100000,-0.100000)"
fill="#000000" stroke="none">
<path d="M0 340 l0 -340 280 0 280 0 0 340 0 340 -280 0 -280 0 0 -340z m429
265 c74 -43 76 -58 25 -145 -32 -55 -37 -60 -52 -47 -28 24 -142 87 -158 87
-11 0 -12 4 -5 19 6 10 7 22 3 27 -4 5 -3 6 2 2 5 -5 22 15 38 42 36 63 61 65
147 15z"/>
<path d="M292 563 c-7 -2 -17 -14 -23 -25 -10 -18 -9 -20 6 -14 18 6 112 -41
135 -69 16 -19 30 -10 30 20 0 18 -14 32 -59 59 -59 36 -66 39 -89 29z"/>
</g>
</svg>
