<?xml version="1.0" standalone="no"?>
<!DOCTYPE svg PUBLIC "-//W3C//DTD SVG 20010904//EN"
 "http://www.w3.org/TR/2001/REC-SVG-20010904/DTD/svg10.dtd">
<svg version="1.0" xmlns="http://www.w3.org/2000/svg"
 width="56.000000pt" height="68.000000pt" viewBox="0 0 56.000000 68.000000"
 preserveAspectRatio="xMidYMid meet">
<metadata>
Created by potrace 1.15, written by Peter Selinger 2001-2017
</metadata>
<g transform="translate(0.000000,68.000000) scale(0.100000,-0.100000)"
fill="#000000" stroke="none">
<path d="M213 488 c-31 -39 -173 -299 -173 -316 0 -15 21 -32 80 -66 84 -49
101 -54 119 -33 31 38 179 310 175 322 -7 16 -130 91 -165 100 -16 4 -29 1
-36 -7z m107 -46 c36 -21 66 -46 68 -55 4 -17 -139 -277 -163 -297 -11 -9 -30
-3 -86 27 -39 21 -74 44 -76 50 -5 13 151 292 171 305 16 11 15 11 86 -30z"/>
</g>
</svg>
